<svg width="24" height="24" viewBox="0 0 24 24" fill="none" xmlns="http://www.w3.org/2000/svg">
  <path d="M2 6.44444V4.22222C2 3.63285 2.23413 3.06762 2.65087 2.65087C3.06762 2.23413 3.63285 2 4.22222 2H6.44444M17.5556 2H19.7778C20.3671 2 20.9324 2.23413 21.3491 2.65087C21.7659 3.06762 22 3.63285 22 4.22222V6.44444M22 17.5556V19.7778C22 20.3671 21.7659 20.9324 21.3491 21.3491C20.9324 21.7659 20.3671 22 19.7778 22H17.5556M6.44444 22H4.22222C3.63285 22 3.06762 21.7659 2.65087 21.3491C2.23413 20.9324 2 20.3671 2 19.7778V17.5556M7.55556 14.2222C7.55556 14.2222 9.22222 16.4444 12 16.4444C14.7778 16.4444 16.4444 14.2222 16.4444 14.2222M8.66667 8.66667H8.67778M15.3333 8.66667H15.3444" stroke="black" stroke-width="2" stroke-linecap="round" stroke-linejoin="round"/>
</svg>
  